<svg width="14" height="12" viewBox="0 0 14 12" fill="none" xmlns="http://www.w3.org/2000/svg">
<path d="M6.99984 11.6294C6.819 11.6294 6.644 11.6061 6.49817 11.5536C4.26984 10.7894 0.729004 8.07693 0.729004 4.06943C0.729004 2.02776 2.37984 0.371094 4.40984 0.371094C5.39567 0.371094 6.31734 0.756094 6.99984 1.44443C7.68234 0.756094 8.604 0.371094 9.58984 0.371094C11.6198 0.371094 13.2707 2.03359 13.2707 4.06943C13.2707 8.08276 9.72984 10.7894 7.5015 11.5536C7.35567 11.6061 7.18067 11.6294 6.99984 11.6294ZM4.40984 1.24609C2.864 1.24609 1.604 2.51193 1.604 4.06943C1.604 8.05359 5.4365 10.2703 6.784 10.7311C6.889 10.7661 7.1165 10.7661 7.2215 10.7311C8.56317 10.2703 12.4015 8.05943 12.4015 4.06943C12.4015 2.51193 11.1415 1.24609 9.59567 1.24609C8.709 1.24609 7.8865 1.66026 7.35567 2.37776C7.19234 2.59943 6.819 2.59943 6.65567 2.37776C6.11317 1.65443 5.2965 1.24609 4.40984 1.24609Z" fill="#101010"/>
</svg>
